<?xml version="1.0" standalone="no"?><!DOCTYPE svg PUBLIC "-//W3C//DTD SVG 1.1//EN" "http://www.w3.org/Graphics/SVG/1.1/DTD/svg11.dtd"><svg t="1523663060191" class="icon" style="" viewBox="0 0 1024 1024" version="1.1" xmlns="http://www.w3.org/2000/svg" p-id="957" xmlns:xlink="http://www.w3.org/1999/xlink" width="200" height="200"><defs><style type="text/css"></style></defs><path d="M938.137917 197.615831c-6.344993-7.675395-15.862483-11.768939-25.891665-11.768939H234.253048v-69.692585c0-18.523286-14.429742-33.055367-32.953028-33.055366h-89.546272c-18.523286 0-33.56706 15.248451-33.56706 33.874075s15.043774 33.874076 33.56706 33.874076h55.365181v661.926044c0 0.204677 0.307016 0.511693 0.307015 0.71637v4.195883c0 68.259844 55.569858 123.727364 123.829703 123.727363 56.593244 0 104.385369-37.762942 119.122126-90.160303h173.975615c14.634419 52.397362 62.426544 90.160304 119.019788 90.160303 68.259844 0 123.727364-55.467519 123.727364-123.727363S771.63302 693.958025 703.373176 693.958025c-56.593244 0-104.385369 39.809714-119.019788 90.160304H410.377773c-14.634419-50.35059-62.835898-90.160304-119.326804-90.160304-20.365381 0-38.479312 4.912253-56.797921 13.611034V640.639616c5.11693 0.921047 10.643214 2.456126 15.862483 2.456127h539.017389c43.186888 0 79.824106-30.59924 91.286029-75.218869 0.204677-0.71637 0.307016-1.637418 0.409354-2.353788l64.370977-340.275834c1.944433-9.824505-0.614032-19.956026-7.061363-27.631421zM703.373176 761.092145c31.110933 0 56.490905 25.379972 56.490906 56.490905 0 31.110933-25.379972 56.490905-56.490906 56.490906-31.110933 0-56.490905-25.379972-56.490905-56.490906 0-31.110933 25.277633-56.490905 56.490905-56.490905z m-412.015191 0c31.110933 0 56.490905 25.379972 56.490906 56.490905 0 31.110933-25.379972 56.490905-56.490906 56.490906-31.110933 0-56.490905-25.379972-56.490905-56.490906 0-31.110933 25.277633-56.490905 56.490905-56.490905z m523.768939-208.770738c-1.842095 6.447332-8.289426 23.230861-25.891665 23.230862H250.115531c-8.596442 0-15.862483-7.573056-15.862483-16.476514v-305.992405h637.46712l-56.593244 299.238057z" fill="" p-id="958"></path></svg>